<?xml version="1.0" encoding="UTF-8"?><svg id="Layer_2" xmlns="http://www.w3.org/2000/svg" viewBox="0 0 125.27 125.27"><defs><style>.cls-1{fill:#fff;}.cls-2{fill:#1e52f1;}</style></defs><g id="Layer_1-2"><rect class="cls-2" width="125.27" height="125.27" rx="32.55" ry="32.55"/><path class="cls-1" d="M86.22,60.71H35.47c-4.39,0-8.61,1.69-11.79,4.71l-6.25,5.95V38.84c0-9.99,8.1-18.09,18.09-18.09h60.9c8.21,0,14.87,6.66,14.87,14.87h0c0,13.86-11.23,25.09-25.09,25.09Z"/><path class="cls-1" d="M60.21,74.44h10.59c3.17,0,6.23-1.22,8.52-3.41l7.62-7.25v32.72c0,4.12-3.34,7.46-7.46,7.46H45.97c-4.22,0-7.64-3.42-7.64-7.64h0c0-12.08,9.79-21.88,21.88-21.88Z"/></g></svg>