<?xml version="1.0" encoding="UTF-8"?><svg id="Layer_2" xmlns="http://www.w3.org/2000/svg" viewBox="0 0 79.56 32.18"><defs><style>.cls-1{fill:#fff;}.cls-2{fill:#3a3a3a;}.cls-3{fill:#1e52f1;}</style></defs><g id="Layer_2-2"><g><path class="cls-2" d="M49.39,8.81h-10.09v2.78h8.51l-5.14,11.97h3.29l4.54-10.72c.26-.62,.55-1.11,.72-1.7,.34-1.17-.61-2.33-1.83-2.33Z"/><path class="cls-2" d="M64.86,17.32c.06-.24,.13-.53,.13-1.36,0-4.03-2.9-6.95-6.89-6.95-4.23,0-6.86,2.83-6.86,7.38s2.72,7.38,7.1,7.38c3.22,0,5.62-1.75,6.57-4.81l.07-.23h-3.28l-.05,.09c-.8,1.46-1.86,2.15-3.31,2.15-2.06,0-3.5-1.26-3.9-3.39h10.36l.06-.26Zm-10.39-2.24c.37-2.08,1.68-3.27,3.63-3.27,2.28,0,3.58,1.87,3.68,3.27h-7.31Z"/><path class="cls-2" d="M73.59,9.01c-1.56,0-2.92,.58-3.96,1.7v-1.39h-3.05v14.14h3.05v-7.38c0-2.71,1.27-4.27,3.47-4.27s3.41,1.52,3.41,4.27v7.38h3.05V15.34c0-4.16-3-6.34-5.97-6.34Z"/></g><rect class="cls-3" x="0" y="0" width="32.18" height="32.18" rx="8.36" ry="8.36"/><path class="cls-1" d="M13.95,20.04h1.88c3.91,0,6.35-2.42,6.35-2.42v5.99c0,1.67-1.35,3.02-3.02,3.02h-7.39c-1.15,0-2.08-.93-2.08-2.08v-.24c0-2.36,1.91-4.27,4.27-4.27Z"/><path class="cls-1" d="M21,15.83H9.59c-1.27,0-2.48,.49-3.4,1.36l-1.45,1.38V10.21c0-2.57,2.08-4.65,4.65-4.65h14.12c2.42,0,3.94,1.71,3.94,3.82h0c0,3.56-2.89,6.45-6.45,6.45Z"/></g></svg>