<svg width="183" height="75" viewBox="0 0 183 75" fill="none" xmlns="http://www.w3.org/2000/svg">
<path d="M50.552 25.5626C32.469 25.5626 31.3977 44.6592 31.3977 50.1393L31.3978 73.5018L18.2717 73.5018L18.2715 50.1393C18.2715 32.4764 27.0715 14.2418 50.552 14.2418H58.5657V25.5626H50.552Z" fill="#0E1215"/>
<path d="M58.5655 0.166504V12.5763H0V0.166504H58.5655Z" fill="#0E1215"/>
<path d="M141.143 19.5875C145.607 13.1663 152.067 9.95563 160.524 9.95563C166.789 9.95563 171.997 11.8742 176.147 15.7113C180.375 19.47 182.49 25.0691 182.49 32.5083V73.5026H168.747V36.2671C168.747 30.9422 167.65 27.1442 165.458 24.8733C163.343 22.5241 160.133 21.3494 155.826 21.3494C153.242 21.3494 150.853 22.0542 148.661 23.4638C146.468 24.8733 144.706 26.9485 143.375 29.6892C142.044 32.43 141.378 35.719 141.378 39.5561V73.5026H127.518V11.3652H140.673V19.5875H141.143Z" fill="#0E1215"/>
<path d="M120.924 55.296C119.357 60.621 116.225 65.2411 111.527 69.1565C106.828 72.9936 100.211 74.9122 91.6755 74.9122C85.7241 74.9122 80.4774 73.5809 75.9356 70.9185C71.3937 68.1777 67.8698 64.3798 65.364 59.5247C62.9364 54.6696 61.7227 49.0314 61.7227 42.6101C61.7227 36.0323 62.9364 30.3158 65.364 25.4607C67.7915 20.5273 71.2371 16.7293 75.7006 14.0669C80.1642 11.3261 85.45 9.95569 91.558 9.95569C97.4311 9.95569 102.599 11.2086 107.063 13.7145C111.605 16.2203 115.129 19.9008 117.635 24.7559C120.219 29.5327 121.511 35.2492 121.511 41.9054C121.511 43.5498 121.472 44.8028 121.393 45.6641H75.7006C75.8573 51.1457 77.3843 55.6484 80.2817 59.1723C83.1791 62.6961 86.977 64.4581 91.6755 64.4581C96.139 64.4581 99.5454 63.4009 101.895 61.2866C104.322 59.094 106.006 56.5881 106.946 53.769L120.924 55.296ZM91.558 20.4098C86.9378 20.4098 83.2965 21.8977 80.634 24.8734C77.9716 27.7708 76.4054 31.4121 75.9356 35.7973H107.415C106.946 31.4121 105.34 27.7708 102.599 24.8734C99.937 21.8977 96.2565 20.4098 91.558 20.4098Z" fill="#0E1215"/>
</svg>
