<?xml version="1.0" encoding="UTF-8"?><svg id="Layer_2" xmlns="http://www.w3.org/2000/svg" viewBox="0 0 75.7 32.18"><defs><style>.cls-1{fill:#fff;}.cls-2{fill:#3a3a3a;}.cls-3{fill:#1e52f1;}</style></defs><g id="Layer_1-2"><g><polygon class="cls-2" points="39.13 9.95 39.13 12.48 46.86 12.48 42.46 22.9 45.45 22.9 50.01 11.9 50.05 9.95 39.13 9.95"/><path class="cls-2" d="M56.59,22.93c-3.95,0-6.29-2.59-6.29-6.54s2.23-6.54,6.07-6.54c3.56,0,6.1,2.56,6.1,6.15,0,.86-.08,1.06-.14,1.31h-9.47c.31,2.01,1.61,3.4,3.73,3.4,1.59,0,2.51-.86,3.15-2.03h2.67c-.81,2.59-2.81,4.26-5.82,4.26Zm3.29-7.57c0-1.31-1.2-3.29-3.51-3.29-2.01,0-3.2,1.34-3.48,3.29h6.99Z"/><path class="cls-2" d="M66.68,10.12v1.53c.89-1.11,2.15-1.81,3.76-1.81,2.81,0,5.26,2.09,5.26,5.6v7.21h-2.45v-6.54c0-2.7-1.28-4.04-3.26-4.04s-3.31,1.34-3.31,4.04v6.54h-2.45V10.12h2.45Z"/></g><rect class="cls-3" width="32.18" height="32.18" rx="8.36" ry="8.36"/><path class="cls-1" d="M22.15,15.6H9.11c-1.13,0-2.21,.43-3.03,1.21l-1.6,1.53V9.98c0-2.57,2.08-4.65,4.65-4.65h15.65c2.11,0,3.82,1.71,3.82,3.82h0c0,3.56-2.89,6.45-6.45,6.45Z"/><path class="cls-1" d="M15.47,19.12h2.72c.82,0,1.6-.31,2.19-.88l1.96-1.86v8.41c0,1.06-.86,1.92-1.92,1.92H11.81c-1.08,0-1.96-.88-1.96-1.96h0c0-3.1,2.52-5.62,5.62-5.62Z"/><rect class="cls-3" width="32.18" height="32.18" rx="8.36" ry="8.36"/><path class="cls-1" d="M22.15,15.6H9.11c-1.13,0-2.21,.43-3.03,1.21l-1.6,1.53V9.98c0-2.57,2.08-4.65,4.65-4.65h15.65c2.11,0,3.82,1.71,3.82,3.82h0c0,3.56-2.89,6.45-6.45,6.45Z"/><path class="cls-1" d="M15.47,19.12h2.72c.82,0,1.6-.31,2.19-.88l1.96-1.86v8.41c0,1.06-.86,1.92-1.92,1.92H11.81c-1.08,0-1.96-.88-1.96-1.96h0c0-3.1,2.52-5.62,5.62-5.62Z"/></g></svg>