<svg width="183" height="75" viewBox="0 0 183 75" fill="none" xmlns="http://www.w3.org/2000/svg">
<path d="M50.552 25.5626C32.469 25.5626 31.3977 44.6592 31.3977 50.1393L31.3978 73.5018L18.2717 73.5018L18.2715 50.1393C18.2715 32.4764 27.0715 14.2418 50.552 14.2418H58.5657V25.5626H50.552Z" fill="white"/>
<path d="M58.5655 0.166504V12.5763H0V0.166504H58.5655Z" fill="white"/>
<path d="M141.145 19.5875C145.609 13.1663 152.069 9.95563 160.526 9.95563C166.791 9.95563 171.998 11.8742 176.149 15.7113C180.377 19.47 182.492 25.0691 182.492 32.5083V73.5026H168.749V36.2671C168.749 30.9422 167.652 27.1442 165.46 24.8733C163.345 22.5241 160.135 21.3494 155.828 21.3494C153.244 21.3494 150.855 22.0542 148.663 23.4638C146.47 24.8733 144.708 26.9485 143.377 29.6892C142.046 32.43 141.38 35.719 141.38 39.5561V73.5026H127.52V11.3652H140.675V19.5875H141.145Z" fill="white"/>
<path d="M120.924 55.296C119.358 60.621 116.226 65.2411 111.528 69.1565C106.829 72.9936 100.212 74.9122 91.6764 74.9122C85.725 74.9122 80.4784 73.5809 75.9365 70.9185C71.3947 68.1777 67.8708 64.3798 65.365 59.5247C62.9374 54.6696 61.7236 49.0314 61.7236 42.6101C61.7236 36.0323 62.9374 30.3158 65.365 25.4607C67.7925 20.5273 71.2381 16.7293 75.7016 14.0669C80.1652 11.3261 85.451 9.95569 91.559 9.95569C97.4321 9.95569 102.6 11.2086 107.064 13.7145C111.606 16.2203 115.13 19.9008 117.636 24.7559C120.22 29.5327 121.512 35.2492 121.512 41.9054C121.512 43.5498 121.473 44.8028 121.394 45.6641H75.7016C75.8582 51.1457 77.3852 55.6484 80.2826 59.1723C83.18 62.6961 86.978 64.4581 91.6764 64.4581C96.14 64.4581 99.5464 63.4009 101.896 61.2866C104.323 59.094 106.007 56.5881 106.947 53.769L120.924 55.296ZM91.559 20.4098C86.9388 20.4098 83.2975 21.8977 80.635 24.8734C77.9725 27.7708 76.4064 31.4121 75.9365 35.7973H107.416C106.947 31.4121 105.341 27.7708 102.6 24.8734C99.9379 21.8977 96.2575 20.4098 91.559 20.4098Z" fill="white"/>
</svg>
