<?xml version="1.0" encoding="UTF-8"?><svg id="Layer_2" xmlns="http://www.w3.org/2000/svg" viewBox="0 0 32.18 32.18"><defs><style>.cls-1{fill:#fff;}.cls-2{fill:#1e52f1;}</style></defs><g id="Layer_2-2"><rect class="cls-2" x="0" width="32.18" height="32.18" rx="8.36" ry="8.36"/><path class="cls-1" d="M13.95,20.04h1.88c3.91,0,6.35-2.42,6.35-2.42v5.99c0,1.67-1.35,3.02-3.02,3.02h-7.39c-1.15,0-2.08-.93-2.08-2.08v-.24c0-2.36,1.91-4.27,4.27-4.27Z"/><path class="cls-1" d="M21,15.83H9.59c-1.27,0-2.48,.49-3.4,1.36l-1.45,1.38V10.21c0-2.57,2.08-4.65,4.65-4.65h14.12c2.42,0,3.94,1.71,3.94,3.82h0c0,3.56-2.89,6.45-6.45,6.45Z"/></g></svg>