<svg version="1.1" id="Layer_1" xmlns="http://www.w3.org/2000/svg" xmlns:xlink="http://www.w3.org/1999/xlink" x="0px" y="0px"
	 viewBox="0 0 48 48" style="enable-background:new 0 0 48 48;" xml:space="preserve">
<style type="text/css">
	.st0{fill:none;stroke:url(#SVGID_1_);stroke-width:3;}
	.st1{fill:url(#SVGID_00000084532298040168367790000005047563586041117106_);}
	.st2{fill:url(#SVGID_00000004545697235041015810000014796433092710234021_);}
</style>
<linearGradient id="SVGID_1_" gradientUnits="userSpaceOnUse" x1="7.6249" y1="7.3194" x2="20.3751" y2="14.6807">
	<stop  offset="0" style="stop-color:#E67904"/>
	<stop  offset="1" style="stop-color:#827F7B"/>
</linearGradient>
<path class="st0" d="M14.1,4.3c0-0.1-0.1-0.1-0.1,0c-0.7,3.3-3.3,6-6.7,6.7c-0.1,0-0.1,0.1,0,0.1c3.3,0.7,6,3.3,6.7,6.7
	c0,0.1,0.1,0.1,0.1,0c0.7-3.3,3.3-6,6.7-6.7c0.1,0,0.1-0.1,0-0.1C17.4,10.3,14.7,7.6,14.1,4.3z"/>
<linearGradient id="SVGID_00000093857090219205909240000002053262196215113371_" gradientUnits="userSpaceOnUse" x1="3.3895" y1="0.4388" x2="4.9547" y2="9.5693">
	<stop  offset="0" style="stop-color:#E67904"/>
	<stop  offset="0.732" style="stop-color:#827F7B"/>
</linearGradient>
<path style="fill:url(#SVGID_00000093857090219205909240000002053262196215113371_);" d="M3.4,0.8c0.1-0.6,1-0.6,1.1,0
	c0.3,1.4,1.3,2.4,2.7,2.7c0.6,0.1,0.6,1,0,1.1C5.9,4.8,4.8,5.9,4.6,7.2c-0.1,0.6-1,0.6-1.1,0C3.2,5.9,2.1,4.8,0.8,4.6
	c-0.6-0.1-0.6-1,0-1.1C2.1,3.2,3.2,2.1,3.4,0.8z"/>
<linearGradient id="SVGID_00000098197883079614377340000018329688603522671284_" gradientUnits="userSpaceOnUse" x1="23.0064" y1="0.7216" x2="24.8325" y2="43.5042">
	<stop  offset="0" style="stop-color:#E67904"/>
	<stop  offset="1" style="stop-color:#827F7B"/>
</linearGradient>
<path style="fill:url(#SVGID_00000098197883079614377340000018329688603522671284_);" d="M24,7.5c-0.8,0-1.5-0.7-1.5-1.5
	s0.7-1.5,1.5-1.5V6V7.5z M40.8,30.5l1.4,0.5l0,0L40.8,30.5z M40.9,39l1.5-0.3l0,0L40.9,39z M40.2,35l1.5-0.3L40.2,35z M38.5,41.5
	l0.3-1.5l0,0L38.5,41.5z M33.7,40.7l-0.3,1.5l0,0L33.7,40.7z M29.6,41.1l-0.5-1.4l0,0L29.6,41.1z M32.3,40.5l0-1.5l0,0L32.3,40.5z
	 M31.5,40.5l-0.3-1.5h0L31.5,40.5z M40.1,32.5l1.5,0.3L40.1,32.5z M40,33.4l1.5,0L40,33.4z M5.5,17.7c0.3-0.8,1.1-1.2,1.9-0.9
	c0.8,0.3,1.2,1.1,0.9,1.9L7,18.2L5.5,17.7z M28.2,27.7c0.7-0.4,1.6-0.2,2.1,0.5c0.4,0.7,0.2,1.6-0.5,2.1L29,29L28.2,27.7z
	 M18.2,30.3c-0.7-0.4-0.9-1.3-0.5-2.1c0.4-0.7,1.3-0.9,2.1-0.5L19,29L18.2,30.3z M6,24h1.5c0,9.1,7.4,16.5,16.5,16.5V42v1.5
	C13.2,43.5,4.5,34.8,4.5,24H6z M42,24h-1.5c0-9.1-7.4-16.5-16.5-16.5V6V4.5c10.8,0,19.5,8.7,19.5,19.5H42z M40.8,30.5l-1.4-0.5
	c0.7-1.8,1.1-3.8,1.1-5.9H42h1.5c0,2.5-0.5,4.8-1.3,7L40.8,30.5z M40.9,39l-1.5,0.3l-0.7-4l1.5-0.3l1.5-0.3l0.7,4L40.9,39z
	 M38.5,41.5l0.3-1.5c0.4,0.1,0.8-0.3,0.7-0.7l1.5-0.3l1.5-0.3c0.4,2.5-1.7,4.6-4.2,4.2L38.5,41.5z M33.7,40.7l0.3-1.5l4.8,0.8
	l-0.3,1.5L38.2,43l-4.8-0.8L33.7,40.7z M24,42v-1.5c1.8,0,3.6-0.3,5.2-0.8l0.5,1.4l0.5,1.4c-1.9,0.6-4,1-6.1,1V42z M33.7,40.7
	l-0.3,1.5c-0.8-0.1-1-0.2-1.2-0.2l0-1.5l0-1.5c0.4,0,0.9,0.1,1.6,0.2L33.7,40.7z M29.6,41.1l-0.5-1.4c0.9-0.3,1.6-0.5,2-0.6l0.3,1.5
	l0.3,1.5c-0.2,0-0.5,0.1-1.6,0.5L29.6,41.1z M32.3,40.5l0,1.5c-0.2,0-0.2,0-0.3,0c0,0-0.1,0-0.3,0l-0.3-1.5l-0.3-1.5
	c0.4-0.1,0.7-0.1,1.1-0.1L32.3,40.5z M40.8,30.5l1.4,0.5c-0.5,1.2-0.6,1.6-0.7,1.8l-1.5-0.3l-1.5-0.3c0.1-0.5,0.4-1.2,0.8-2.3
	L40.8,30.5z M40.2,35l-1.5,0.3c-0.1-0.8-0.2-1.3-0.2-1.8l1.5,0l1.5,0c0,0.2,0,0.5,0.2,1.3L40.2,35z M40.1,32.5l1.5,0.3
	c0,0.2,0,0.2-0.1,0.3c0,0.1,0,0.1,0,0.3l-1.5,0l-1.5,0c0-0.5,0-0.8,0.1-1.2L40.1,32.5z M7,18.2l1.4,0.5c-0.6,1.7-0.9,3.5-0.9,5.3H6
	H4.5c0-2.2,0.4-4.3,1-6.3L7,18.2z M29,29l0.8,1.3c-3.6,2.1-8,2.1-11.5,0L19,29l0.8-1.3c2.6,1.6,5.9,1.6,8.5,0L29,29z"/>
</svg>
